G04 ================== begin FILE IDENTIFICATION RECORD ==================*
G04 Layout Name:  C:/Users/HP/Desktop/Proiect1DCE/allegro/PROIECT1DCE1.brd*
G04 Film Name:    SMTOP*
G04 File Format:  Gerber RS274X*
G04 File Origin:  Cadence Allegro 16.6-2015-S059*
G04 Origin Date:  Wed Nov 21 01:32:02 2018*
G04 *
G04 Layer:  VIA CLASS/SOLDERMASK_TOP*
G04 Layer:  PIN/SOLDERMASK_TOP*
G04 Layer:  PACKAGE GEOMETRY/SOLDERMASK_TOP*
G04 Layer:  BOARD GEOMETRY/SOLDERMASK_TOP*
G04 *
G04 Offset:    (0.00 0.00)*
G04 Mirror:    No*
G04 Mode:      Positive*
G04 Rotation:  0*
G04 FullContactRelief:  No*
G04 UndefLineWidth:     0.00*
G04 ================== end FILE IDENTIFICATION RECORD ====================*
%FSLAX25Y25*MOIN*%
%IR0*IPPOS*OFA0.00000B0.00000*MIA0B0*SFA1.00000B1.00000*%
%ADD17C,.05*%
%ADD20R,.066X.106*%
%ADD11C,.044*%
%ADD18R,.12008X.07087*%
%ADD14R,.05512X.05512*%
%ADD10R,.025X.022*%
%ADD19R,.04528X.04724*%
%ADD12R,.04724X.04528*%
%ADD21R,.05906X.08661*%
%ADD15R,.08661X.05906*%
%ADD16R,.04528X.06496*%
%ADD13R,.06496X.04528*%
%LPD*%
G75*
G54D10*
X32500Y27800D03*
Y20300D03*
X25500Y24000D03*
X64500Y20200D03*
Y27700D03*
X71500Y24000D03*
X69500Y66300D03*
X62500Y70000D03*
X69500Y73800D03*
G54D11*
X32543Y34543D03*
X21000Y58000D03*
X39000Y82000D03*
X55000Y40000D03*
X49800Y20200D03*
X75000Y66000D03*
Y60000D03*
X54382Y79382D03*
X75000D03*
X77000Y102000D03*
X79000Y40000D03*
X78000Y35000D03*
X98000Y96000D03*
X93000Y105000D03*
X119000Y51000D03*
X121000Y112000D03*
G54D20*
X84500Y140000D03*
X97500D03*
G54D21*
X119000Y23173D03*
G54D12*
X32543Y49000D03*
X25457D03*
X44457D03*
X51543D03*
X85457D03*
X92543D03*
G54D13*
X29000Y66063D03*
X47000D03*
X39000Y95937D03*
Y88063D03*
X25000Y95937D03*
Y88063D03*
X29000Y73937D03*
X47000D03*
X69000Y88063D03*
Y95937D03*
X54000D03*
Y88063D03*
X85000Y66063D03*
Y88063D03*
Y95937D03*
Y73937D03*
X134000Y119937D03*
Y112063D03*
G54D14*
X22173Y121528D03*
Y112472D03*
X128827Y69472D03*
X123528Y44827D03*
X114472D03*
X128827Y78528D03*
G54D15*
X43827Y117000D03*
X107173Y74000D03*
G54D16*
X42937Y139000D03*
X35063D03*
X71937Y49000D03*
X64063D03*
G54D17*
X20000Y140000D03*
X140000Y20000D03*
G54D18*
X77000Y116000D03*
X134000Y139000D03*
G54D19*
X105000Y119543D03*
Y112457D03*
M02*
