G04 ================== begin FILE IDENTIFICATION RECORD ==================*
G04 Layout Name:  C:/Users/HP/Desktop/Proiect1DCE/allegro/PROIECT1DCE1.brd*
G04 Film Name:    SSTOP*
G04 File Format:  Gerber RS274X*
G04 File Origin:  Cadence Allegro 16.6-2015-S059*
G04 Origin Date:  Wed Nov 21 01:32:02 2018*
G04 *
G04 Layer:  REF DES/SILKSCREEN_TOP*
G04 Layer:  PACKAGE GEOMETRY/SILKSCREEN_TOP*
G04 Layer:  BOARD GEOMETRY/SILKSCREEN_TOP*
G04 *
G04 Offset:    (0.00 0.00)*
G04 Mirror:    No*
G04 Mode:      Positive*
G04 Rotation:  0*
G04 FullContactRelief:  No*
G04 UndefLineWidth:     0.00*
G04 ================== end FILE IDENTIFICATION RECORD ====================*
%FSLAX25Y25*MOIN*%
%IR0*IPPOS*OFA0.00000B0.00000*MIA0B0*SFA1.00000B1.00000*%
%ADD10C,.00079*%
%ADD11C,.00591*%
%ADD12C,.00787*%
G75*
%LPD*%
G75*
G54D10*
G01X71081Y121197D02*
X71163Y121098D01*
X71261Y121033D01*
X71376Y121000D01*
X71507Y121033D01*
X71606Y121098D01*
X71704Y121197D01*
X71737Y121328D01*
Y121984D01*
G01X72278Y121820D02*
X72377Y121918D01*
X72492Y121968D01*
X72623Y121984D01*
X72787Y121951D01*
X72902Y121869D01*
X72934Y121771D01*
X72918Y121672D01*
X72852Y121590D01*
X72524Y121426D01*
X72377Y121312D01*
X72278Y121148D01*
X72246Y121000D01*
X72934D01*
G01X128081Y144197D02*
X128163Y144098D01*
X128261Y144033D01*
X128376Y144000D01*
X128507Y144033D01*
X128606Y144098D01*
X128704Y144197D01*
X128737Y144328D01*
Y144984D01*
G01X129590Y144000D02*
Y144984D01*
X129393Y144787D01*
G01Y144000D02*
X129787D01*
G54D11*
G01X25291Y44609D02*
X25055Y44806D01*
X24779Y44937D01*
X24464D01*
X24110Y44740D01*
X23835Y44412D01*
X23638Y44018D01*
X23480Y43362D01*
X23441Y42772D01*
X23520Y42181D01*
X23638Y41787D01*
X23874Y41394D01*
X24149Y41131D01*
X24425Y41000D01*
X24701D01*
X24976Y41131D01*
X25212Y41328D01*
X25409Y41590D01*
G01X27574Y41000D02*
Y44937D01*
X27102Y44150D01*
G01Y41000D02*
X28046D01*
G01X39291Y44609D02*
X39055Y44806D01*
X38779Y44937D01*
X38464D01*
X38110Y44740D01*
X37835Y44412D01*
X37638Y44018D01*
X37480Y43362D01*
X37441Y42772D01*
X37520Y42181D01*
X37638Y41787D01*
X37874Y41394D01*
X38149Y41131D01*
X38425Y41000D01*
X38701D01*
X38976Y41131D01*
X39212Y41328D01*
X39409Y41590D01*
G01X40826Y44281D02*
X41062Y44674D01*
X41338Y44871D01*
X41653Y44937D01*
X42046Y44806D01*
X42322Y44478D01*
X42401Y44084D01*
X42361Y43690D01*
X42204Y43362D01*
X41417Y42706D01*
X41062Y42247D01*
X40826Y41590D01*
X40747Y41000D01*
X42401D01*
G01X24000Y66638D02*
X20063D01*
Y67622D01*
X20260Y67937D01*
X20522Y68134D01*
X21047Y68212D01*
X21572Y68134D01*
X21900Y67897D01*
X22097Y67622D01*
Y66638D01*
G01Y67622D02*
X24000Y68212D01*
G01X23213Y69708D02*
X23672Y69944D01*
X23934Y70259D01*
X24000Y70613D01*
X23934Y70928D01*
X23606Y71243D01*
X23213Y71440D01*
X22819Y71479D01*
X22360Y71401D01*
X22032Y71125D01*
X21900Y70850D01*
Y70495D01*
G01Y70850D02*
X21703Y71086D01*
X21375Y71283D01*
X20982Y71361D01*
X20588Y71283D01*
X20260Y71086D01*
X20063Y70731D01*
X20129Y70377D01*
X20391Y70023D01*
G01X40638Y100000D02*
Y103937D01*
X41622D01*
X41937Y103740D01*
X42134Y103478D01*
X42212Y102953D01*
X42134Y102428D01*
X41897Y102100D01*
X41622Y101903D01*
X40638D01*
G01X41622D02*
X42212Y100000D01*
G01X44574D02*
Y103937D01*
X44102Y103150D01*
G01Y100000D02*
X45046D01*
G01X34000Y88638D02*
X30063D01*
Y89622D01*
X30260Y89937D01*
X30522Y90134D01*
X31047Y90212D01*
X31572Y90134D01*
X31900Y89897D01*
X32097Y89622D01*
Y88638D01*
G01Y89622D02*
X34000Y90212D01*
G01X30719Y91826D02*
X30326Y92062D01*
X30129Y92338D01*
X30063Y92653D01*
X30194Y93046D01*
X30522Y93322D01*
X30916Y93401D01*
X31310Y93361D01*
X31638Y93204D01*
X32294Y92417D01*
X32753Y92062D01*
X33410Y91826D01*
X34000Y91747D01*
Y93401D01*
G01X36638Y144000D02*
Y147937D01*
X37622D01*
X37937Y147740D01*
X38134Y147478D01*
X38212Y146953D01*
X38134Y146428D01*
X37897Y146100D01*
X37622Y145903D01*
X36638D01*
G01X37622D02*
X38212Y144000D01*
G01X39708Y144590D02*
X39944Y144262D01*
X40220Y144066D01*
X40574Y144000D01*
X40928Y144131D01*
X41204Y144394D01*
X41401Y144853D01*
X41440Y145378D01*
X41361Y145903D01*
X41164Y146231D01*
X40889Y146493D01*
X40613Y146559D01*
X40338Y146493D01*
X39984Y146231D01*
X40102Y147937D01*
X41164D01*
G01X56000Y63638D02*
X52063D01*
Y64622D01*
X52260Y64937D01*
X52522Y65134D01*
X53047Y65212D01*
X53572Y65134D01*
X53900Y64897D01*
X54097Y64622D01*
Y63638D01*
G01Y64622D02*
X56000Y65212D01*
G01Y68046D02*
X52063D01*
X54885Y66590D01*
Y68558D01*
G01X60000Y45064D02*
X56063D01*
Y46048D01*
X56260Y46363D01*
X56522Y46560D01*
X57047Y46638D01*
X57572Y46560D01*
X57900Y46323D01*
X58097Y46048D01*
Y45064D01*
G01Y46048D02*
X60000Y46638D01*
G01Y49000D02*
X56063D01*
X56850Y48528D01*
G01X60000D02*
Y49472D01*
G01X56063Y52149D02*
X56194Y51834D01*
X56522Y51598D01*
X56916Y51440D01*
X57441Y51322D01*
X58032Y51283D01*
X58622Y51322D01*
X59147Y51440D01*
X59541Y51598D01*
X59869Y51834D01*
X60000Y52149D01*
X59869Y52464D01*
X59541Y52700D01*
X59147Y52858D01*
X58622Y52976D01*
X58032Y53015D01*
X57441Y52976D01*
X56916Y52858D01*
X56522Y52700D01*
X56194Y52464D01*
X56063Y52149D01*
G01X78000Y88638D02*
X74063D01*
Y89622D01*
X74260Y89937D01*
X74522Y90134D01*
X75047Y90212D01*
X75572Y90134D01*
X75900Y89897D01*
X76097Y89622D01*
Y88638D01*
G01Y89622D02*
X78000Y90212D01*
G01Y92495D02*
X77147Y92574D01*
X76425Y92692D01*
X75769Y92850D01*
X75047Y93046D01*
X74063Y93361D01*
Y91787D01*
G01X63000Y88638D02*
X59063D01*
Y89622D01*
X59260Y89937D01*
X59522Y90134D01*
X60047Y90212D01*
X60572Y90134D01*
X60900Y89897D01*
X61097Y89622D01*
Y88638D01*
G01Y89622D02*
X63000Y90212D01*
G01Y92574D02*
X62934Y92850D01*
X62738Y93164D01*
X62410Y93361D01*
X61950Y93440D01*
X61491Y93361D01*
X61097Y93125D01*
X60900Y92771D01*
Y92377D01*
X60769Y92141D01*
X60441Y91944D01*
X59982Y91865D01*
X59522Y91984D01*
X59194Y92259D01*
X59063Y92574D01*
X59194Y92889D01*
X59522Y93164D01*
X59982Y93283D01*
X60441Y93204D01*
X60769Y93007D01*
X60900Y92771D01*
Y92377D01*
X61097Y92023D01*
X61491Y91787D01*
X61950Y91708D01*
X62410Y91787D01*
X62738Y91984D01*
X62934Y92298D01*
X63000Y92574D01*
G01X85291Y56609D02*
X85055Y56806D01*
X84779Y56937D01*
X84464D01*
X84110Y56740D01*
X83835Y56412D01*
X83638Y56018D01*
X83480Y55362D01*
X83441Y54772D01*
X83520Y54181D01*
X83638Y53787D01*
X83874Y53394D01*
X84149Y53131D01*
X84425Y53000D01*
X84701D01*
X84976Y53131D01*
X85212Y53328D01*
X85409Y53590D01*
G01X86708Y53787D02*
X86944Y53328D01*
X87259Y53066D01*
X87613Y53000D01*
X87928Y53066D01*
X88243Y53394D01*
X88440Y53787D01*
X88479Y54181D01*
X88401Y54640D01*
X88125Y54968D01*
X87850Y55100D01*
X87495D01*
G01X87850D02*
X88086Y55297D01*
X88283Y55625D01*
X88361Y56018D01*
X88283Y56412D01*
X88086Y56740D01*
X87731Y56937D01*
X87377Y56871D01*
X87023Y56609D01*
G01X94000Y67638D02*
X90063D01*
Y68622D01*
X90260Y68937D01*
X90522Y69134D01*
X91047Y69212D01*
X91572Y69134D01*
X91900Y68897D01*
X92097Y68622D01*
Y67638D01*
G01Y68622D02*
X94000Y69212D01*
G01X93541Y70905D02*
X93869Y71180D01*
X94000Y71495D01*
X93869Y71810D01*
X93475Y72086D01*
X92885Y72283D01*
X92294Y72361D01*
X91572D01*
X90982Y72283D01*
X90457Y72086D01*
X90194Y71850D01*
X90063Y71574D01*
X90194Y71259D01*
X90457Y71023D01*
X90850Y70865D01*
X91375Y70787D01*
X91835Y70865D01*
X92294Y71062D01*
X92557Y71298D01*
X92622Y71574D01*
X92491Y71889D01*
X92163Y72125D01*
X91572Y72361D01*
G01X94000Y88638D02*
X90063D01*
Y89622D01*
X90260Y89937D01*
X90522Y90134D01*
X91047Y90212D01*
X91572Y90134D01*
X91900Y89897D01*
X92097Y89622D01*
Y88638D01*
G01Y89622D02*
X94000Y90212D01*
G01X92360Y91826D02*
X91900Y92102D01*
X91638Y92338D01*
X91507Y92653D01*
X91638Y92928D01*
X91900Y93125D01*
X92294Y93283D01*
X92753Y93322D01*
X93147Y93283D01*
X93541Y93125D01*
X93869Y92889D01*
X94000Y92613D01*
X93869Y92298D01*
X93475Y92023D01*
X92885Y91865D01*
X92228Y91826D01*
X91375Y91905D01*
X90916Y92023D01*
X90457Y92220D01*
X90129Y92495D01*
X90063Y92771D01*
X90194Y93046D01*
X90522Y93243D01*
G01X97391Y117291D02*
X97194Y117055D01*
X97063Y116779D01*
Y116464D01*
X97260Y116110D01*
X97588Y115835D01*
X97982Y115638D01*
X98638Y115480D01*
X99228Y115441D01*
X99819Y115520D01*
X100213Y115638D01*
X100606Y115874D01*
X100869Y116149D01*
X101000Y116425D01*
Y116701D01*
X100869Y116976D01*
X100672Y117212D01*
X100410Y117409D01*
G01X101000Y120046D02*
X97063D01*
X99885Y118590D01*
Y120558D01*
G01X143000Y113638D02*
X139063D01*
Y114622D01*
X139260Y114937D01*
X139522Y115134D01*
X140047Y115212D01*
X140572Y115134D01*
X140900Y114897D01*
X141097Y114622D01*
Y113638D01*
G01Y114622D02*
X143000Y115212D01*
G01X139063Y116787D02*
X143000D01*
Y118361D01*
G54D12*
G01X41165Y92000D02*
X36835D01*
G01X27165D02*
X22835D01*
G01X31165Y70000D02*
X26835D01*
G01X49165D02*
X44835D01*
G01X24142Y115819D02*
Y118181D01*
G01Y125858D02*
X41858D01*
Y122118D01*
G01X24142Y108142D02*
X41858D01*
Y111882D01*
G01X39000Y136835D02*
Y141165D01*
G01X68000Y46835D02*
Y51165D01*
G01X66835Y92000D02*
X71165D01*
G01X56165D02*
X51835D01*
G01X82835D02*
X87165D01*
G01Y70000D02*
X82835D01*
G01X127858Y42858D02*
Y25142D01*
X124118D01*
G01X110142Y42858D02*
Y25142D01*
X113882D01*
G01X126858Y65142D02*
X109142D01*
Y68882D01*
G01X117819Y42858D02*
X120181D01*
G01X126858Y75181D02*
Y72819D01*
G01Y82858D02*
X109142D01*
Y79118D01*
G01X136165Y116000D02*
X131835D01*
M02*
